<svg enable-background="new 0 0 266.9 266.9" viewBox="0 0 266.9 266.9" xmlns="http://www.w3.org/2000/svg"><g fill="#f8f5eb"><path clip-rule="evenodd" d="m100.6 96.5c3.6.4 6.7 4.8 7.3 8.9 1 7 5.7 13.4 13 13.4s14-1.4 15-8.5c.7-5 3.4-3 5.5-2.7 1.3.2 2.6 1.1 2.3 2.4l-3 14.3c-.3 1.3-1.1 2.4-2.3 2.4h-39.4c-1.3 0-2.2-1.1-2.3-2.4l-2-18c-.3-2.8-3.1-5-4.5-6.1-2-1.5-1.5-2.3-1.3-3.6.1-.9 1-1.6 1.9-1.5 4.5.4 5.3.9 9.8 1.4zm.5 45.5 3.1-8.4h-6.5c-.9 0-1.6-.8-1.6-1.7s.7-1.7 1.6-1.7h41c.9 0 1.6.8 1.6 1.7s-.7 1.7-1.6 1.7h-8.4l4.5 8.4h13.9.2c1.2 0 2.4-.1 3.6-.3 1.1-.2 2.1-.5 3.1-.9.2-.1 2.5-1.6 2.5-1.6.6-.6 1.2-1.3 1.5-2 .9-1.8 1.1-3.7.9-5.6-.3-2-1.2-3.9-2.4-5.3s-2.7-2.3-4.4-2.5c-1.4-.2-3 .2-4.6 1.3-1 .7-1.7 1.6-2 2.6-.8 2.2-.1 4.8 1.6 6.4.7.7 1.5 1.2 2.4 1.3.4.1.8 0 1.2-.1s.7-.3 1-.5.5-.5.7-.8.3-.6.3-1c0-.5 0-.9-.1-1.2s-.3-.6-.5-.9c-.2-.2-.4-.4-.7-.5s-.6-.2-1-.1c-.9.1-1.8-.6-1.8-1.5-.1-.9.6-1.8 1.5-1.9s1.7 0 2.4.3c.8.3 1.5.8 2 1.4.6.6 1 1.3 1.2 2.2.2.8.3 1.6.3 2.5-.1.9-.3 1.7-.7 2.4s-1 1.4-1.7 1.9-1.4.8-2.2 1-1.6.2-2.5.1c-1.7-.2-3.2-1.1-4.4-2.2-2.5-2.5-3.6-6.6-2.4-10 .6-1.6 1.6-3.1 3.3-4.3 2.3-1.6 4.7-2.2 7-1.9 2.5.3 4.8 1.7 6.5 3.7 1.7 1.9 2.8 4.4 3.2 7 .3 2.4 0 5.1-1.2 7.5-1.1 2.2-3.6 4.3-5.8 5.3-1.2.5-2.5.9-3.8 1.1-2.2.4-4.5.3-6.7.3h-56.1c-.9 0-1.7-.8-1.7-1.7s.8-1.7 1.7-1.7zm6.5-8.4h.1l-3.1 8.4h26.4l-4.5-8.4z" fill-rule="evenodd"/><path clip-rule="evenodd" d="m184.4 160.1-7.3 2.2-.9-2.9c-1.3-4.4-5.9-6.9-10.3-5.6l-2.7.8c-4.4 1.3-6.9 5.9-5.6 10.3l.9 2.9-7.3 2.2c-2.1.6-3.3 2.9-2.7 5l7.6 31.4c.5 2.2 2.9 3.4 5 2.7l36.4-10.7c2.1-.6 3.5-2.9 2.7-5l-10.6-30.5c-.9-2.2-3-3.4-5.2-2.8zm-10.4 3.1-12.4 3.7-.9-2.9c-2-6.8 10.4-10.4 12.4-3.7zm1.2 1.6c-1.3.4-2.1 1.8-1.7 3.1s1.8 2.1 3.1 1.7 2.1-1.8 1.7-3.1c-.3-1.4-1.7-2.1-3.1-1.7zm-13.9 4.1c-1.3.4-2.1 1.8-1.7 3.1s1.8 2.1 3.1 1.7 2.1-1.8 1.7-3.1c-.3-1.4-1.7-2.1-3.1-1.7zm6.4 10.8c-.5-.2-.7-.8-.4-1.3.2-.5.8-.7 1.3-.4l1.8.9-.7-2.4c-.1-.5.1-1 .6-1.2.5-.1 1 .1 1.2.6l.7 2.3.8-1.5c.3-.5.8-.6 1.3-.4.5.3.6.8.4 1.3l-1.7 3.2.5 1.8 1.7-2.1c.3-.4.8-.5 1.2-.2.5 0 .9.4.9 1v2.6l1.5-1 .5-3.7c.1-.5.6-.9 1.1-.8s.9.6.8 1.1l-.3 1.9 2.1-1.4c.4-.3 1-.2 1.3.3.3.4.2 1-.3 1.3l-2 1.3 1.7.3c.5.1.9.6.8 1.1s-.6.9-1.1.8l-3.6-.7-1.5 1 2.5 1c.4.2.7.6.6 1.1.2.5-.1 1-.6 1.2l-2.5.8 1.4 1.1 3.6-.6c.5-.1 1 .3 1.1.8s-.3 1-.8 1.1l-1.9.3 2 1.6c.4.3.5.9.2 1.3s-.9.5-1.3.2l-1.9-1.5.2 1.7c.1.5-.3 1-.8 1.1s-1-.3-1.1-.8l-.4-3.6-1.4-1.2-.2 2.7c0 .5-.4.8-.8.9-.4.3-1 .2-1.3-.2l-1.5-2.2-.6 1.6 1.7 3.3c.2.5 0 1-.4 1.3-.5.2-1 0-1.3-.4l-.9-1.8-.9 2.3c-.2.5-.7.7-1.2.5s-.7-.7-.5-1.2l.9-2.2-1.6.7c-.5.2-1 0-1.3-.5-.2-.5 0-1 .5-1.3l3.3-1.5.7-1.7-2.6.6c-.4.1-.9-.1-1.1-.5-.4-.3-.5-.9-.2-1.3l1.6-2.1-1.8-.1-2.7 2.6c-.4.4-1 .4-1.3 0-.4-.4-.4-1 0-1.3l1.4-1.4-2.5-.2c-.5 0-.9-.5-.9-1s.5-.9 1-.9l2.4.2-1.2-1.3c-.3-.4-.3-1 .1-1.3s1-.3 1.3.1l2.4 2.7 1.8.1-1.4-2.3c-.2-.3-.2-.7 0-.9.2-.5.7-.8 1.2-.6l2.5.8-.5-1.7zm2.5 9.9 2.3-.6c.4-.1.8 0 1.1.4l-.2.1.2-.1 1.4 2 .2-2.4c0-.4.3-.8.7-.9l.1.2-.1-.2 2.4-.7-2.2-.9c-.4-.1-.7-.5-.7-.9h.2-.2v-2.5l-1.5 1.8c-.2.3-.7.5-1.1.4l.1-.2-.1.2-2.1-.7 1.1 1.8c.2.3.2.8 0 1.1l-.2-.1.2.1z" fill-rule="evenodd"/><path d="m0 73.8.2-5.6c0-.9.8-1.6 1.6-1.6.9 0 1.6.8 1.6 1.6l-.1 4.3 3-1.7c.7-.5 1.7-.2 2.1.5.4.8.2 1.7-.6 2.2l-3 1.7 3.8 2c.8.4 1.1 1.4.6 2.2-.4.8-1.4 1.1-2.2.6l-5.5-3-1.5 1zm0 12.1 1.6.9 5.5-3c.8-.4 1.8-.1 2.2.6.4.8.1 1.8-.6 2.2l-3.8 2 3 1.7c.8.4 1 1.4.6 2.2s-1.4 1-2.2.6l-3-1.7.1 4.3c0 .9-.7 1.6-1.6 1.6s-1.6-.7-1.6-1.6l-.2-5.6z"/><path d="m239.1 73.5c-.8-.4-1-1.4-.6-2.2s1.4-1 2.2-.6l3 1.7-.1-4.3c0-.9.7-1.6 1.6-1.6s1.6.7 1.6 1.6l.2 6.2 4.6 2.7c.1-.1.1-.1.2-.2 1-1 2.2-1.6 3.5-1.9v-5.3l-5.3-3.3c-.8-.5-1-1.4-.5-2.2s1.4-1 2.2-.5l3.6 2.2v-3.5c0-.9.7-1.6 1.6-1.6s1.6.7 1.6 1.6v3.5l3.6-2.2c.8-.5 1.7-.2 2.2.5.5.8.2 1.7-.5 2.2l-5.3 3.3v5.3c1.3.3 2.6 1 3.5 1.9.1.1.1.1.2.2l4.6-2.7v-.6 4.3l-3 1.7c.2.7.3 1.4.3 2.2s-.1 1.5-.3 2.2l3 1.7v4.3-.6l-4.6-2.7c-.1.1-.1.1-.2.2-1 1-2.2 1.6-3.5 1.9v5.3l5.3 3.3c.8.5 1 1.4.5 2.2s-1.4 1-2.2.5l-3.6-2.2v3.5c0 .9-.7 1.6-1.6 1.6s-1.6-.7-1.6-1.6v-3.5l-3.6 2.2c-.8.5-1.7.2-2.2-.5-.5-.8-.2-1.7.5-2.2l5.3-3.3v-5.2c-1.4-.3-2.6-1-3.5-1.9-.1-.1-.1-.1-.2-.2l-4.6 2.7-.2 6.2c0 .9-.8 1.6-1.6 1.6-.9 0-1.6-.8-1.6-1.6l.1-4.3-3 1.7c-.8.4-1.7.2-2.2-.6-.4-.8-.2-1.7.6-2.2l3-1.7-3.7-2c-.8-.4-1.1-1.4-.6-2.2.4-.8 1.4-1.1 2.2-.6l5.5 3 4.6-2.7c-.2-.7-.3-1.4-.3-2.2s.1-1.5.3-2.2l-4.6-2.7-5.5 3c-.8.4-1.8.1-2.2-.6-.4-.8-.1-1.8.6-2.2l3.7-2zm17.8 4.4c-1.1 0-2.1.5-2.9 1.2-.7.7-1.2 1.7-1.2 2.9 0 1.1.5 2.1 1.2 2.9.7.7 1.7 1.2 2.9 1.2 1.1 0 2.1-.5 2.9-1.2.7-.7 1.2-1.7 1.2-2.9 0-1.1-.5-2.1-1.2-2.9-.8-.8-1.8-1.2-2.9-1.2z"/><path clip-rule="evenodd" d="m108 0c1.1 5.9 1.5 3.8 6 10.2.1 0 .3.8.4.8l3.4 11.5c.3 1.2-.4 2.4-1.6 2.7s-2.4-.4-2.7-1.5l-3.3-11.3c-4.8-6.8-9.8-13.1-4.1-.6.1.3.2.7.2 1l-.2 12.2c0 1.2-1 2.2-2.2 2.2s-2.3-.9-2.3-2.1l.1-12-3.4-6.9-17.9 3 3.4 9.3c.1.3.1.6.1.8l-.5 9.5c0 1.2-1 2.2-2.3 2.2-1.2 0-2.2-1-2.2-2.2l.5-9.2c-3.7-10.6-4.9-16.3-4.6-1l-.1 11.5c0 1.2-.9 2.2-2.2 2.3-1.2 0-2.3-.9-2.3-2.1l.1-11.5-.1-12.9v-.1c-.2-.5-.2-1.1-.3-1.7-.3-1.5-.5-2.9-.8-4.1h18.9c-.3.4-.5 1-.4 1.5.2 1.1 1.2 1.8 2.3 1.6 1.1-.1 1.8-1.2 1.7-2.2-.1-.3-.2-.6-.4-.9z" fill-rule="evenodd"/><path clip-rule="evenodd" d="m105.6 250.9c8.7 1.7 4.6 9.5.6 8.8.4.6.7 1.4.9 2.2l.6 3.9c.1.4.1.8.2 1.1h-16.7c-.4-.5-1.2-.8-1.9-.7-.5.1-1 .4-1.3.7h-18.9c-3-13.3-5.9-8.7-7.9-7.7-7.1 3.4-9.6 1.1-8.7-5.2.4-3.2.3-7.8 3.2-10.1l3-1.8c-.4-.4-.7-.8-.9-1.2-2.8.1-4.7-.6-6.1-1.7-1.6-1.4-2.3-2.6-2.6-4.7-.1-1 .6-2 1.6-2.3s1.9.3 2.1 1.2c.2 1.5.6 2 1.6 2.8.6.5 1.5.9 2.8 1 0-1.7.5-2.9 1.4-5.1.4-1 1.5-1.6 2.4-1.3s1.3 1.3.9 2.3c-1.7 4-.9 6.1 1 8.3 1.5 0 3 .2 4.2.7 2.5-.8 3.7-1.8 5-3.6 1.5-2 2.2-4.1 1.3-8.2-.2-1 .4-2 1.4-2.2s2 .4 2.2 1.4c.5 2.4.5 3.8.3 5.6 1.9-.1 3.2-.5 4-1.3 1.1-1.1 1.7-2.5 2-5.6.1-1 1-1.8 2-1.7s1.8.9 1.7 1.9c-.3 4.1-1.2 6.1-3 7.9-1.7 1.7-4.1 2.4-7.7 2.4-.3.7-.7 1.3-1.2 1.9-1.4 1.9-2.5 3.1-4.8 4.1 3.2 4.9 10.4 15.7 17.2 14.6l10.6-1.8c3.6-.5 8.3-1.6 7.5-6.6zm-10.3 9.7c-1.1.2-1.8 1.2-1.7 2.3.2 1.1 1.2 1.8 2.3 1.6s1.8-1.2 1.7-2.3c-.1-1-1.2-1.8-2.3-1.6zm-13.3 2.1c-1.1.2-1.8 1.2-1.7 2.3.2 1.1 1.2 1.8 2.3 1.6s1.8-1.2 1.7-2.3c-.2-1-1.2-1.8-2.3-1.6zm-16.6-15.5-.1.3c-1.2 2.8-1.3 6.2-5.3 6.1-1.7 0-2.2.4-2.5.7-.7-7.4 3.2-6 7.9-7.1z" fill-rule="evenodd"/><path d="m67.2 172.1c-.8-.1-1.4-.8-1.3-1.6s.8-1.4 1.6-1.3l3.2.3-1.8-3.5c-.4-.7-.1-1.6.7-2 .7-.4 1.6-.1 2 .7l2.6 5.1 4.9.4c0-.1.1-.2.1-.3.4-1.2 1.2-2.2 2.2-3l-2.1-4.4-5.7-.6c-.8-.1-1.4-.8-1.3-1.6s.8-1.4 1.6-1.3l3.9.4-1.4-2.9c-.3-.7 0-1.6.7-2 .7-.3 1.6 0 2 .7l1.4 2.9 2.1-3.3c.4-.7 1.4-.9 2-.4.7.4.9 1.4.4 2l-3.1 4.8 2.1 4.4c1.2-.3 2.5-.2 3.7.2.1 0 .2.1.2.1l2.8-4-2.3-5.2c-.3-.7 0-1.6.7-1.9s1.6 0 1.9.7l1.6 3.6 1.8-2.6c.5-.7 1.4-.8 2-.4.7.5.8 1.4.4 2l-1.8 2.6 3.9.2c.8 0 1.4.7 1.4 1.6 0 .8-.7 1.4-1.6 1.4l-5.7-.3-2.8 4c.4.5.8 1 1.1 1.7.3.6.5 1.3.6 1.9l4.9.4 3.4-4.6c.5-.7 1.4-.8 2.1-.3s.8 1.4.3 2.1l-2.3 3.2 3.2.3c.8.1 1.4.8 1.3 1.6s-.8 1.4-1.6 1.3l-3.2-.3 1.8 3.5c.4.7.1 1.6-.7 2-.7.4-1.6.1-2-.7l-2.6-5.1-4.9-.4c0 .1-.1.2-.1.3-.4 1.2-1.2 2.2-2.2 3l2.1 4.4 5.7.6c.8.1 1.4.8 1.3 1.6s-.8 1.4-1.6 1.3l-3.9-.4 1.4 2.9c.3.7 0 1.6-.7 2-.7.3-1.6 0-2-.7l-1.4-2.9-2.1 3.3c-.4.7-1.4.9-2 .4-.7-.4-.9-1.4-.4-2l3.1-4.8-2.1-4.4c-1.2.3-2.5.2-3.7-.2-.1 0-.2-.1-.2-.1l-2.8 4 2.3 5.2c.3.7 0 1.6-.7 1.9s-1.6 0-1.9-.7l-1.6-3.6-1.8 2.6c-.5.7-1.4.8-2 .4-.7-.5-.8-1.4-.4-2l1.8-2.6-3.9-.2c-.8 0-1.4-.7-1.4-1.6 0-.8.7-1.4 1.6-1.4l5.7.3 2.8-4c-.4-.5-.8-1-1.1-1.7-.3-.6-.5-1.3-.6-1.9l-4.9-.4-3.4 4.6c-.5.7-1.4.8-2.1.3s-.8-1.4-.3-2.1l2.3-3.2zm16.5-3.4c-.9.4-1.6 1.2-1.9 2.1s-.3 1.9.1 2.8 1.2 1.6 2.1 1.9 1.9.3 2.8-.1 1.6-1.2 1.9-2.1.3-1.9-.1-2.8-1.2-1.6-2.1-1.9-1.9-.3-2.8.1z"/><path clip-rule="evenodd" d="m172.9 105.5c-7.8 4.3-1.5 10.5 2.1 8.6-.2.7-.3 1.5-.2 2.3l.6 3.9c1.1 7.3 0 4.8-2.5 12.6-.1 0-.1.8-.1.9l.3 12c.1 1.2 1.1 2.1 2.3 2s2.2-1.1 2.1-2.3l-.3-11.8c2.5-7.9 5.3-15.5 3.7-1.8 0 .4 0 .7.1 1l3.9 11.6c.3 1.2 1.6 1.8 2.8 1.5s1.9-1.6 1.5-2.7l-3.8-11.4 1.1-7.6 17.9-2.7-.3 9.9c0 .3 0 .6.1.8l3.4 8.8c.4 1.1 1.6 1.8 2.8 1.4s1.8-1.6 1.4-2.8l-3.3-8.6c.2-11.2-.3-17 4.1-2.3l3.6 10.9c.3 1.2 1.6 1.8 2.8 1.5s1.9-1.5 1.5-2.7l-3.6-10.9-3.8-12.3v-.1c0-.6-.1-1.1-.2-1.7-2.5-18.4 2.2-14.2 4.7-13.9 7.8 1 9.5-1.9 6.7-7.6-1.4-2.9-2.7-7.3-6.1-8.6l-3.4-.8c.2-.5.4-1 .4-1.4 2.7-.7 4.3-2 5.2-3.5 1.1-1.8 1.4-3.2 1-5.3-.2-1-1.2-1.7-2.2-1.7s-1.8.8-1.6 1.8c.2 1.5 0 2.1-.6 3.2-.4.7-1.2 1.3-2.3 1.8-.5-1.6-1.3-2.6-2.9-4.4-.7-.8-1.9-1-2.7-.5s-.9 1.6-.2 2.5c2.9 3.3 2.7 5.6 1.6 8.2-1.4.4-2.8 1.1-3.8 2-2.6 0-4.1-.6-5.9-1.9-2.1-1.4-3.4-3.3-3.8-7.4-.1-1-1-1.7-2-1.6s-1.8 1-1.7 2c.2 2.4.7 3.7 1.5 5.4-1.8.5-3.2.5-4.2 0-1.4-.7-2.4-1.8-3.6-4.8-.4-.9-1.5-1.4-2.4-1-1 .4-1.4 1.4-1.1 2.4 1.5 3.8 3 5.5 5.3 6.6 2.2 1.1 4.7 1 8.1-.1.5.6 1.1 1 1.7 1.5 1.9 1.3 3.3 2.2 5.8 2.4-1.5 5.6-5.1 18.1-11.9 19.2l-10.6 1.6c-3.4.6-8.2.9-9-4.1zm12.8 6.1c1.1-.2 2.1.6 2.3 1.6.2 1.1-.6 2.1-1.7 2.2-1.1.2-2.1-.6-2.3-1.6s.6-2 1.7-2.2zm13.4-2.1c1.1-.2 2.1.6 2.3 1.6.2 1.1-.6 2.1-1.7 2.2-1.1.2-2.1-.6-2.3-1.6s.6-2 1.7-2.2zm-5.9 5.5c1.1-.2 2.1.6 2.3 1.6.2 1.1-.6 2.1-1.7 2.2-1.1.2-2.1-.6-2.3-1.6s.6-2 1.7-2.2zm16.9-25.4.2.2c2 2.3 3.1 5.5 6.9 4.2 1.7-.6 2.2-.3 2.6-.1-1.7-7.2-4.9-4.7-9.7-4.3z" fill-rule="evenodd"/><path d="m0 208.1c.6-.1 1.3.2 1.6.7.5.8.2 1.7-.5 2.2l-1.1.8zm0 13.4 4.1-2.4.2-6.2c0-.9.8-1.6 1.6-1.6.9 0 1.6.8 1.6 1.6l-.1 4.3 3-1.7c.8-.4 1.7-.2 2.2.6.4.8.2 1.7-.6 2.2l-3 1.7 3.8 2c.8.4 1.1 1.4.6 2.2-.4.8-1.4 1.1-2.2.6l-5.5-3-4.6 2.7c.2.7.3 1.4.3 2.2s-.1 1.5-.3 2.2l4.6 2.7 5.5-3c.8-.4 1.8-.1 2.2.6.4.8.1 1.8-.6 2.2l-3.8 2 3 1.7c.8.4 1 1.4.6 2.2s-1.4 1-2.2.6l-3-1.7.1 4.3c0 .9-.7 1.6-1.6 1.6s-1.6-.7-1.6-1.6l-.2-6.2-4.1-2.4zm0 20.2 1.1.7c.8.5 1 1.4.5 2.2-.3.6-1 .8-1.6.7z"/><path d="m243.3 218.3c-.8-.4-1-1.4-.6-2.2s1.4-1 2.2-.6l3 1.7-.1-4.3c0-.9.7-1.6 1.6-1.6s1.6.7 1.6 1.6l.2 6.2 4.6 2.7.2-.2c1-1 2.2-1.6 3.5-2v-5.3l-5.3-3.3c-.8-.5-1-1.4-.5-2.2s1.4-1 2.2-.5l3.6 2.2v-3.5c0-.9.7-1.6 1.6-1.6s1.6.7 1.6 1.6v3.5l3.6-2.2c.2-.1.4-.2.6-.2v3.6l-4.2 2.6v5.3c1.3.3 2.6 1 3.5 2 .1.1.1.1.2.2l.5-.3v10.4l-.5-.3c-.1.1-.1.1-.2.2-1 1-2.2 1.6-3.5 1.9v5.3l4.2 2.6v3.6c-.2 0-.4-.1-.6-.2l-3.6-2.2v3.5c0 .9-.7 1.6-1.6 1.6s-1.6-.7-1.6-1.6v-3.5l-3.6 2.2c-.8.5-1.7.2-2.2-.5-.5-.8-.2-1.7.5-2.2l5.3-3.3v-5.3c-1.4-.3-2.6-1-3.5-1.9-.1-.1-.1-.1-.2-.2l-4.6 2.7-.2 6.2c0 .9-.8 1.6-1.6 1.6-.9 0-1.6-.8-1.6-1.6l.1-4.3-3 1.7c-.8.4-1.7.2-2.2-.6-.4-.8-.2-1.7.6-2.2l3-1.7-3.8-2c-.8-.4-1.1-1.4-.6-2.2.4-.8 1.4-1.1 2.2-.6l5.5 3 4.6-2.7c-.2-.7-.3-1.4-.3-2.2s.1-1.5.3-2.2l-4.6-2.7-5.5 3c-.8.4-1.8.1-2.2-.6-.4-.8-.1-1.8.6-2.2l3.7-2zm17.8 4.4c-1.1 0-2.1.5-2.9 1.2-.7.7-1.2 1.7-1.2 2.9 0 1.1.5 2.1 1.2 2.9.7.7 1.7 1.2 2.9 1.2 1.1 0 2.1-.5 2.9-1.2.7-.7 1.2-1.7 1.2-2.9 0-1.1-.5-2.1-1.2-2.9-.8-.8-1.9-1.2-2.9-1.2z"/><path d="m21.9 137.3c-.8-.4-1-1.4-.6-2.2s1.4-1 2.2-.6l3 1.7-.1-4.3c0-.9.7-1.6 1.6-1.6s1.6.7 1.6 1.6l.2 6.2 4.6 2.7.2-.2c1-1 2.2-1.6 3.5-1.9v-5.3l-5.3-3.3c-.8-.5-1-1.4-.5-2.2s1.4-1 2.2-.5l3.6 2.2v-3.5c0-.9.7-1.6 1.6-1.6s1.6.7 1.6 1.6v3.5l3.6-2.2c.8-.5 1.7-.2 2.2.5.5.8.2 1.7-.5 2.2l-5.3 3.3v5.3c1.3.3 2.6 1 3.5 1.9l.2.2 4.6-2.7.2-6.2c0-.9.8-1.6 1.6-1.6.9 0 1.6.8 1.6 1.6l-.1 4.3 3-1.7c.8-.4 1.7-.2 2.2.6.4.8.2 1.7-.6 2.2l-3 1.7 3.7 2c.8.4 1.1 1.4.6 2.2-.4.8-1.4 1.1-2.2.6l-5.5-3-4.6 2.7c.2.7.3 1.4.3 2.2s-.1 1.5-.3 2.2l4.6 2.7 5.5-3c.8-.4 1.8-.1 2.2.6.4.8.1 1.8-.6 2.2l-3.7 2 3 1.7c.8.4 1 1.4.6 2.2s-1.4 1-2.2.6l-3-1.7.1 4.3c0 .9-.7 1.6-1.6 1.6s-1.6-.7-1.6-1.6l-.2-6.2-4.6-2.7c-.1.1-.1.1-.2.2-1 1-2.2 1.6-3.5 1.9v5.3l5.3 3.3c.8.5 1 1.4.5 2.2s-1.4 1-2.2.5l-3.6-2.2v3.5c0 .9-.7 1.6-1.6 1.6s-1.6-.7-1.6-1.6v-3.5l-3.6 2.2c-.8.5-1.7.2-2.2-.5-.5-.8-.2-1.7.5-2.2l5.3-3.3v-5.3c-1.4-.3-2.6-1-3.5-1.9-.1-.1-.1-.1-.2-.2l-4.6 2.7-.2 6.2c0 .9-.8 1.6-1.6 1.6-.9 0-1.6-.8-1.6-1.6l.1-4.3-3 1.7c-.8.4-1.7.2-2.2-.6-.4-.8-.2-1.7.6-2.2l3-1.7-3.8-2c-.8-.4-1.1-1.4-.6-2.2.4-.8 1.4-1.1 2.2-.6l5.5 3 4.6-2.7c-.2-.7-.3-1.4-.3-2.2s.1-1.5.3-2.2l-4.6-2.7-5.5 3c-.8.4-1.8.1-2.2-.6-.4-.8-.1-1.8.6-2.2l3.8-2zm17.8 4.4c-1.1 0-2.1.5-2.9 1.2-.7.7-1.2 1.7-1.2 2.9 0 1.1.5 2.1 1.2 2.9.7.7 1.7 1.2 2.9 1.2 1.1 0 2.1-.5 2.9-1.2.7-.7 1.2-1.7 1.2-2.9 0-1.1-.5-2.1-1.2-2.9-.8-.8-1.8-1.2-2.9-1.2z"/><g clip-rule="evenodd" fill-rule="evenodd"><path d="m144.2 209.7-21.2-3.4c2.1-.1 4.2-.3 5.1-.5 1.9-.4 4.3-.7 6.8-1.8 10.3-4.5 1-23-15.6-2.4-9.3-25-23.7-10.2-15.4-2.7 2 1.8 4 3 5.8 3.9.8.4 2.7 1.3 4.7 2.1l-21.2-3.4-1.7 10.7 23.7 3.8 1.7-10.4c1.3.4 2.3.5 3.6.6l-1.7 10.4 23.7 3.8zm-22.9-6.4c5.3-.5 6.2-.4 11.2-2.5 3.2-1.4 3-4.3.5-4.9-2.4-.5-6.5.9-11.7 7.4zm-4.5-.7c-3.6-1.6-6.5-2.5-9.4-5.1-2.8-2.5-1.8-5.7.6-5.7 2.3-.1 5.7 2.4 8.8 10.8zm20.5 20.4-12.6-2 3.3 8.1-4.1-1-2.4 3.5-3.4-11.7-3.6 22.2 19.2 3.1zm-29.1-4.8-12.1-2-3.6 22.2 18.5 3 3.6-22.2-9 12.5-1.1-4.1-4.2-.4z"/><path d="m37.1 106.7 1.6-16.1c.3-2.9 1-5.3 2-7.3-6.3-.1-12.3-1.8-17.3-4.8-7.4-4.2-12.8-11.1-14.5-19.6-.3-1.5.7-2.9 2.1-3.2 1.5-.3 2.9.7 3.2 2.1.6 2.8 1.6 5.4 3.1 7.7 1-1.1 1.9-2.3 2.6-3.5 1-1.8 1.6-3.8 1.7-5.9.1-1.5 1.3-2.6 2.8-2.6 1.5.1 2.6 1.3 2.6 2.8-.2 2.9-1 5.7-2.3 8.2-1 1.9-2.4 3.7-4 5.2 1.4 1.4 2.9 2.6 4.6 3.7 1.8-1.4 3.3-3.1 4.4-5s1.8-4.1 1.9-6.3c.1-1.5 1.4-2.6 2.9-2.5s2.6 1.4 2.5 2.9c-.2 3.1-1.1 6.1-2.6 8.7-1 1.8-2.3 3.4-3.8 4.9 5.3 2 11.4 2.5 17.6 1.3s11.6-4.1 15.8-8c-2-.8-3.8-1.8-5.4-3-2.4-1.9-4.4-4.2-5.8-7-.6-1.3-.1-3 1.3-3.6 1.3-.7 3-.1 3.6 1.3 1 2 2.4 3.8 4.2 5.1 1.7 1.3 3.8 2.3 6 2.9 1.1-1.6 2.1-3.3 2.8-5.1-2.1-.8-4-1.9-5.7-3.3-2.2-1.8-4-4-5.3-6.7-.6-1.3-.1-3 1.3-3.6 1.3-.6 3-.1 3.6 1.3.9 1.9 2.2 3.5 3.9 4.8 1.1.9 2.4 1.7 3.8 2.3.4-2.7.4-5.5-.1-8.3-.3-1.5.7-2.9 2.1-3.2 1.5-.3 2.9.7 3.2 2.1 1.7 8.5-.6 16.9-5.8 23.7-3.7 4.5-8.6 8.3-14.4 10.9 1.7 1.4 3.3 3.4 4.7 6l7.6 14.2c8.6 16-34.3 24.5-32.5 6.5zm31.4-19.7c5.1.2 15.4-2.6 12.8-4.9s-5.6-4-10.7-4.2-8.7 1.4-7.9 3.6c.8 2.1.7 5.3 5.8 5.5zm-35.4 7.1c-4.7 2.1-15.2 3.5-13.7.4 1.5-3.2 3.6-5.9 8.3-8s8.6-2 8.7.3c0 2.2 1.4 5.1-3.3 7.3zm20 8c-2.1.4-3.4 2.1-3.1 3.8s2.3 2.7 4.3 2.3c2.1-.4 3.5-2.1 3.1-3.8-.3-1.7-2.2-2.7-4.3-2.3zm-6.8-10.6c-1 .2-1.6 1.5-1.3 3 .3 1.4 1.4 2.5 2.4 2.3s1.6-1.5 1.3-3-1.4-2.5-2.4-2.3zm9-1.8c-1 .2-1.6 1.5-1.3 3s1.4 2.5 2.4 2.3 1.6-1.5 1.3-3-1.4-2.5-2.4-2.3z"/><path d="m114.1 38.2c.9.2 1.5 1 1.3 1.8s-1.1 1.3-2 1.1-1.5-1-1.3-1.8 1.1-1.3 2-1.1zm-6.1 38.1c-2 1.9-4.3 3.8-7 7.5-.2-.3-.5-.5-.9-.8-1.4-1-2.2-.7-3.2-.4-.3.1-.5.2-.9 0-.6-.3-.6-.7-.6-1.1-.1-.8-.2-1.6-1.2-2.4-.7-.6-1.4-.9-2.1-1l7-10.1c.9-1.4 2.6-6.7 1-8.4l-7.4-7.8c-.2-.5-.4-1.2.2-1.7.1-.1.2 0 .4 0 .9.2 1.9.5 3.2-.4 1.7-1.1 1.6-2.2 1.6-3.3 0-.3 0-.6 0-.7.4-.4.9-.4 1.5-.3l6.2 6.2c1.9 2.1 4.7-.1 1.7-3.1-2.2-2.2-2.9-5.1-2.1-8.8 1.1-4.6 7.4-9 13.6-7.6 6.2 1.6 9.9 8.3 8.8 12.9-.9 3.7-3.1 5.8-5.9 7-3.8 1.6-2.3 4.5.3 3.4l7.9-2.9c.5.2 1 .5 1.2 1 0 .1-.1.4-.3.6-.6.9-1.1 1.9-.1 3.6.9 1.4 1.8 1.6 2.7 1.8.2 0 .4.1.4.2.3.7-.1 1.2-.6 1.6l-9.6 3.8c-2.4.9-3.1 6.3-2.9 8l1.7 12.2c-.6-.1-1.3-.2-2.1 0-1.2.3-1.7.9-2.1 1.6-.2.3-.5.7-1.1.7-.4 0-.6-.2-.8-.4-.7-.7-1.3-1.3-3-1.1-.5.1-1 .2-1.4.4-.8-4.6-2-7.4-2.9-10 .1-.8-.4-.9-1.2-.2zm-9 10.4c-.8 1.1-1.5 2-1.8 2.3-3.8 4-11.9-.9-7-8.1.7-.2 1.6-.4 2.2.1.1.1.1.4.2.7.1 1.1.2 2.2 2.2 3.2 1.5.8 2.4.5 3.3.2.2-.1.3-.1.4 0 .7.4.6 1 .5 1.6zm-9.1-37.4c-5.4-4.9 2.1-10.6 7.2-6-.4.2-.8.5-1.2.8-.8.8-.8 1.6-.7 2.4 0 .4.1.8-.4 1.1-.3.2-.6.1-.9 0-1-.3-1.9-.5-3.1.5-.4.5-.7.9-.9 1.2zm43.7 2.6c7.5-2.4 11.4 6.7 3.8 8.6 0-.4-.1-.8-.3-1.3-.6-1.4-1.5-1.6-2.5-1.8-.3-.1-.6-.1-.8-.4-.3-.5-.1-.9.1-1.2.4-.7.8-1.4.5-2.5-.3-.7-.5-1.1-.8-1.4zm-10.1 36.6v.1c1.3 8.7-8.2 9.5-9.8 4.2-.1-.3-.2-1.1-.4-2.1 0-.1 0-.2.1-.4.1-.5.2-1.5 1.2-1.6.1 0 .2.1.4.2.6.6 1.3 1.3 3.1 1.3 2.2 0 2.8-1 3.4-1.9.2-.2.3-.5.5-.5.4-.1 1 .2 1.5.7zm-12.6-20.5c1 .2 1.6 1.1 1.4 2s-1.2 1.4-2.2 1.2-1.6-1.1-1.4-2c.3-.9 1.2-1.4 2.2-1.2zm1.4-5.9c1 .2 1.6 1.1 1.4 2s-1.2 1.4-2.2 1.2-1.6-1.1-1.4-2 1.2-1.4 2.2-1.2zm1.3-5.9c1 .2 1.6 1.1 1.4 2s-1.2 1.4-2.2 1.2-1.6-1.1-1.4-2 1.2-1.4 2.2-1.2zm7.6-16.3c.9.2 1.5 1 1.3 1.8s-1.1 1.3-2 1.1-1.5-1-1.3-1.8c.1-.9 1-1.3 2-1.1zm-7.4 4.4c-.3-.6-1.2-1-1.9-.7s-1 1-.7 1.6c.3.7.8 1.2 1.3 1.7.9.8 1.9 1.4 3.1 1.6 1.2.3 2.4.2 3.5-.2.6-.2 1.1-.5 1.6-.9.5-.5.5-1.3 0-1.8-.6-.5-1.5-.6-2-.1-.2.2-.5.4-.8.5-.5.2-1.1.2-1.7.1s-1.2-.4-1.7-.9c-.3-.2-.5-.6-.7-.9z"/><path d="m48.4 182.4c-.3 1.1.1 2-1.9 2.6-7.5 2.8-13.1 10-13.1 18.8 0 11.1 9 20.1 20.1 20.1s20.1-9 20.1-20.1c0-8.7-5.5-16.1-13.3-18.9-1.6-.5-1.3-1.5-1.6-2.6h-10.3zm8.1 17.8-2.4 1.6c-.4.3-.9.4-1.4.1l.1-.2-.1.2-2.2-1.5.6 2.5c.2.5 0 1-.4 1.3l-.1-.2.1.2-2.4 1.8 2.9.1c.5 0 1 .3 1.1.8l-.2.1.2-.1.9 2.9 1-2.7c.1-.5.6-.8 1.1-.8v.2-.2h3l-2.3-1.8c-.4-.3-.6-.8-.5-1.3l.2.1-.2-.1zm-7.7-6.6c-.5-.4-.5-1.2-.1-1.6.4-.5 1.2-.5 1.6-.1l1.8 1.6v-3c0-.6.5-1.2 1.2-1.2.6 0 1.2.5 1.2 1.2v2.9l1.5-1.5c.5-.4 1.2-.4 1.6 0 .4.5.4 1.2 0 1.6l-3.1 3.1v2.2l2.7-1.8c.5-.3 1.1-.3 1.5.1.6.2 1 .8.8 1.4l-.9 3.1 2-.6 1.9-4.1c.3-.6 1-.8 1.5-.6.6.3.8 1 .6 1.5l-1 2.2 2.9-.9c.6-.2 1.3.1 1.5.8.2.6-.1 1.3-.8 1.4l-2.7.9 1.9 1c.6.3.8 1 .5 1.6s-1 .8-1.6.5l-3.9-2-2.1.7 2.6 2c.4.3.6.9.3 1.4 0 .6-.5 1.2-1.1 1.2h-3.2l1.2 1.8 4.4.6c.6.1 1.1.7 1 1.3s-.7 1.1-1.3 1l-2.4-.3 1.7 2.5c.4.5.2 1.2-.3 1.6s-1.2.2-1.6-.3l-1.6-2.4-.4 2.1c-.1.6-.7 1.1-1.3.9-.6-.1-1-.7-.9-1.3l.8-4.4-1.3-1.8-1.1 3c-.2.5-.7.8-1.3.7-.6.2-1.3-.1-1.5-.7l-1-3-1.3 1.7.8 4.4c.1.6-.3 1.2-.9 1.3s-1.2-.3-1.3-.9l-.4-2.3-1.9 2.4c-.4.5-1.1.6-1.6.2s-.6-1.1-.2-1.6l1.7-2.3-2.1.3c-.6.1-1.2-.4-1.3-1s.4-1.2 1-1.3l4.4-.6 1.4-1.8-3.2-.2c-.6 0-1-.4-1.1-1-.4-.5-.3-1.2.3-1.6l2.6-1.9-2-.7-4 2.1c-.6.3-1.3.1-1.6-.5s-.1-1.3.5-1.6l2.1-1.1-2.9-1c-.6-.2-.9-.9-.7-1.5s.9-.9 1.5-.7l2.7 1-.9-1.9c-.3-.6 0-1.3.6-1.5.6-.3 1.3 0 1.5.6l1.9 4 2.1.8-.8-3.1c-.1-.4 0-.8.3-1.1.4-.5 1.1-.7 1.6-.3l2.7 1.8v-2.1z"/><path d="m53.4 174.3c-3.9-11.5 4-11.8 0 0zm5 2h-2.8c.1-.2.1-.3.2-.5.4-1 .4-1.2.5-1.5 5.2-15.1-10.9-14.9-5.9 0 .2.5.3.9.5 1.6.1.2.1.3.2.5h-2.6c-.5 0-.8.4-.8.8v2.8c0 .5.4.8.8.8h9.9c.5 0 .8-.4.8-.8v-2.8c0-.5-.3-.9-.8-.9z"/><path d="m154.1 61.4c-.2 1.1.2 2-1.7 2.7-7.4 3.2-12.5 10.8-12 19.6.7 11.1 10.2 19.5 21.2 18.8 11.1-.7 19.5-10.2 18.8-21.2-.5-8.7-6.5-15.7-14.4-18.1-1.7-.4-1.4-1.4-1.8-2.5zm9.1 17.3-2.3 1.8c-.4.3-.9.4-1.4.1l.1-.2-.1.2-2.3-1.4.8 2.4c.2.5.1 1-.3 1.3l-.2-.2.1.2-2.3 1.9h2.9c.5 0 1 .2 1.2.7l-.2.1.2-.1 1.1 2.8.8-2.8c.1-.5.5-.9 1-.9v.2-.2l3-.2-2.4-1.6c-.4-.2-.7-.8-.6-1.3l.2.1-.2-.1zm-8-6.2c-.5-.4-.6-1.1-.2-1.6s1.1-.6 1.6-.2l1.8 1.5-.2-3c0-.6.4-1.2 1.1-1.2.6 0 1.2.4 1.2 1.1l.2 2.9 1.4-1.6c.4-.5 1.2-.5 1.6-.1.5.4.5 1.2.1 1.6l-2.9 3.3.1 2.2 2.5-2c.4-.3 1.1-.3 1.5 0 .6.1 1 .8.9 1.4l-.7 3.1 2-.8 1.6-4.2c.2-.6.9-.9 1.5-.7s.9.9.7 1.5l-.9 2.2 2.9-.9c.6-.2 1.3.1 1.5.7s-.1 1.3-.7 1.5l-2.7 1 1.9.9c.6.3.8.9.6 1.5-.3.6-.9.8-1.5.6l-4-1.8-2.1.8 2.7 1.8c.5.3.6.9.4 1.4 0 .6-.4 1.2-1.1 1.2l-3.2.2 1.3 1.7 4.5.3c.6 0 1.1.6 1.1 1.2s-.6 1.1-1.2 1.1l-2.4-.2 1.9 2.4c.4.5.3 1.2-.2 1.6s-1.2.3-1.6-.2l-1.8-2.3-.2 2.1c-.1.6-.6 1.1-1.3 1-.6-.1-1.1-.6-1-1.3l.5-4.4-1.4-1.8-.9 3.1c-.2.5-.7.9-1.2.8-.6.2-1.3-.1-1.5-.6l-1.2-3-1.2 1.8 1 4.3c.2.6-.2 1.2-.8 1.4-.6.1-1.2-.2-1.4-.8l-.6-2.3-1.7 2.5c-.4.5-1.1.7-1.6.3s-.7-1.1-.3-1.6l1.6-2.4-2.1.4c-.6.1-1.2-.3-1.4-.9-.1-.6.3-1.2.9-1.4l4.3-.8 1.3-1.8h-3.2c-.6 0-1-.4-1.1-.9-.4-.5-.3-1.2.2-1.6l2.5-2-2.1-.6-3.8 2.3c-.5.3-1.3.2-1.6-.4-.3-.5-.2-1.3.4-1.6l2-1.2-2.9-.9c-.6-.2-1-.8-.8-1.4s.8-1 1.4-.8l2.8.8-1-1.9c-.3-.6-.1-1.3.5-1.6s1.3-.1 1.6.5l2.1 3.9 2.1.6-1-3.1c-.1-.4 0-.8.2-1.1.3-.5 1-.7 1.6-.4l2.8 1.6-.1-2.1z"/><path d="m158.6 53c-4.5-11.2 3.3-12.1 0 0zm5.1 1.7-2.8.2c.1-.2.1-.3.2-.5.3-1 .4-1.2.4-1.6 4.3-15.4-11.7-14.2-5.9.3.2.5.3.9.6 1.6.1.2.1.3.2.5l-2.6.2c-.5 0-.8.4-.8.9l.2 2.8c0 .5.4.8.9.8l9.9-.6c.5 0 .8-.4.8-.9l-.2-2.8c0-.6-.4-1-.9-.9z"/><path d="m233.5 148.4c-4.9-12.4 3.6-13.4.3 0-.1 0-.2 0-.3 0zm33.4 43.4v5.4c-1.4 4.8-6.5 7.6-11.4 6.4-6.1-1.6-13.2-2.2-19.3-3.8-7.4-2-11.5-9.6-9.9-17l3.7-16.9c-1.8-.6-3.3-1.9-4.2-3.5-1-1.6-1.3-3.5-.8-5.4 0-.1.1-.3.1-.5l.8-2.3c.7-2 2-3.6 3.7-4.6.2-.1.5-.3.8-.4-7-16.7 11.6-18.4 6.9-.5l-.2.6 20.1 5.3c.2.1.4.1.5.2 1.8.6 3.3 1.9 4.2 3.5s1.3 3.5.8 5.4c0 .1-.1.3-.1.5l-.8 2.3c-.7 2-2 3.6-3.7 4.6s-3.6 1.3-5.7.8l-.2-.1-.9 6.5c-.4 2.9 2.9 5.6 5.8 6.4l3.2.9c3.2.7 5.7 3.2 6.6 6.2zm-33.9-25.5c1.8.7 12.2 4 16.6 4.8-.5 3.7-4.3 12.8 3.9 15.2 2.1.6 5.1 1.3 7.6 2.5 7 3.5 1.9 12-2 11.9-7.2-.2-13.2-1.9-20.6-3.6-9.2-2.2-9.8-9.8-8.7-16.9.9-5.8 2.1-8.6 3.2-13.9z"/><path d="m209.9 204.2c-.3 1.1.1 2-1.9 2.6-7.5 2.8-13.1 10-13.1 18.8 0 11.1 9 20.1 20.1 20.1s20.1-9 20.1-20.1c0-8.7-5.5-16.1-13.3-18.9-1.6-.5-1.3-1.5-1.6-2.6h-10.3zm8.1 17.8-2.4 1.6c-.4.3-.9.4-1.4.1l.1-.2-.1.2-2.2-1.5.6 2.5c.2.5 0 1-.4 1.3l-.1-.2.1.2-2.4 1.8 2.9.1c.5 0 1 .3 1.1.8l-.2.1.2-.1.9 2.9 1-2.7c.1-.5.6-.8 1.1-.8v.2-.2h3l-2.3-1.8c-.4-.3-.6-.8-.5-1.3l.2.1-.2-.1zm-7.6-6.6c-.5-.4-.5-1.2-.1-1.6.4-.5 1.2-.5 1.6-.1l1.8 1.6v-3c0-.6.5-1.2 1.2-1.2s1.2.5 1.2 1.2v2.9l1.5-1.5c.5-.5 1.2-.5 1.6 0s.4 1.2 0 1.6l-3.1 3.1v2.2l2.7-1.8c.5-.3 1.1-.3 1.5.1.6.2 1 .8.8 1.4l-.9 3.1 2-.6 1.9-4.1c.3-.6 1-.8 1.5-.6.6.3.8 1 .6 1.5l-1 2.2 2.9-.9c.6-.2 1.3.1 1.5.8.2.6-.1 1.3-.8 1.5l-2.7.9 1.9 1c.6.3.8 1 .5 1.6s-1 .8-1.6.5l-3.9-2-2.1.7 2.6 2c.4.3.6.9.3 1.4 0 .6-.5 1.2-1.1 1.2h-3.2l1.2 1.8 4.4.6c.6.1 1.1.7 1 1.3s-.7 1.1-1.3 1l-2.3-.3 1.7 2.5c.4.5.2 1.2-.3 1.6s-1.2.2-1.6-.3l-1.6-2.4-.4 2.1c-.1.6-.7 1-1.3.9s-1-.7-.9-1.3l.8-4.4-1.3-1.8-1.1 3c-.2.5-.7.8-1.3.7-.6.2-1.3-.1-1.5-.7l-1-3-1.3 1.7.8 4.4c.1.6-.3 1.2-.9 1.3s-1.2-.3-1.3-.9l-.4-2.3-1.9 2.4c-.4.5-1.1.6-1.6.2s-.6-1.1-.2-1.6l1.7-2.3-2.1.3c-.6.1-1.2-.4-1.3-1s.4-1.2 1-1.3l4.4-.6 1.4-1.8-3.2-.2c-.6 0-1-.4-1.1-1-.4-.5-.3-1.2.3-1.6l2.6-1.9-2-.7-4 2.1c-.6.3-1.3.1-1.6-.5s-.1-1.3.5-1.6l2.1-1.1-2.9-1c-.6-.2-.9-.9-.7-1.5s.9-.9 1.5-.7l2.7 1-.9-1.9c-.3-.6 0-1.3.6-1.5.6-.3 1.3 0 1.5.6l1.9 4 2.1.8-.8-3.1c-.1-.4 0-.8.3-1.1.4-.5 1.1-.7 1.6-.3l2.7 1.8v-2.1z"/><path d="m214.9 196.1c-3.8-11.5 4.1-11.8 0 0zm5.1 2h-2.8c.1-.2.1-.3.2-.5.4-1 .4-1.2.5-1.5 5.2-15.1-10.9-14.9-5.9 0 .2.5.3.9.5 1.6 0 .2.1.3.2.5h-2.7c-.5 0-.8.4-.8.8v2.8c0 .5.4.8.8.8h9.9c.5 0 .8-.4.8-.8v-2.8c.1-.5-.3-.9-.7-.9z"/><path d="m241.1 120.7-2.3-1.6c-.4-.3-.9-.3-1.3-.1l.1.2-.1-.2-2.1 1.5.6-2.4c.2-.5 0-1-.4-1.3l-.1.2.1-.2-2.4-1.7 2.8-.1c.5 0 .9-.3 1.1-.8l-.2-.1.2.1.9-2.8 1 2.6c.1.5.6.8 1.1.8v-.2.2h2.9l-2.2 1.7c-.4.3-.6.8-.5 1.3l.2-.1-.2.1zm-7.4 6.5c-.5.4-.5 1.1-.1 1.6s1.1.5 1.6.1l1.7-1.5v2.9c0 .6.5 1.1 1.1 1.1s1.1-.5 1.1-1.1v-2.8l1.4 1.4c.4.4 1.1.4 1.6 0 .4-.4.4-1.1 0-1.6l-3-3v-2.2l2.6 1.8c.4.3 1 .2 1.4-.1.6-.2.9-.8.7-1.4l-.9-3 2 .6 1.8 3.9c.3.6.9.8 1.5.5s.8-.9.5-1.5l-1-2.1 2.8.9c.6.2 1.2-.1 1.4-.7s-.1-1.2-.7-1.4l-2.6-.8 1.8-.9c.5-.3.8-1 .5-1.5s-1-.8-1.5-.5l-3.8 2-2.1-.6 2.5-1.9c.4-.3.5-.9.3-1.4 0-.6-.5-1.1-1.1-1.1h-3.1l1.2-1.7 4.3-.6c.6-.1 1-.6 1-1.2-.1-.6-.6-1-1.2-1l-2.3.3 1.7-2.4c.4-.5.2-1.2-.3-1.6s-1.2-.2-1.6.3l-1.6 2.3-.4-2c-.1-.6-.7-1-1.3-.9s-1 .7-.9 1.3l.7 4.2-1.2 1.8-1.1-2.9c-.2-.5-.7-.8-1.2-.7-.6-.2-1.2.1-1.4.7l-1 2.9-1.3-1.6.8-4.3c.1-.6-.3-1.2-.9-1.3s-1.2.3-1.3.9l-.4 2.3-1.8-2.3c-.4-.5-1.1-.6-1.6-.2s-.6 1.1-.2 1.6l1.7 2.2-2-.3c-.6-.1-1.2.4-1.3 1s.3 1.2 1 1.3l4.2.6 1.3 1.7-3.1.2c-.5 0-1 .4-1 .9-.4.5-.2 1.2.3 1.6l2.5 1.8-1.9.7-3.8-2c-.5-.3-1.2-.1-1.5.5-.3.5-.1 1.2.5 1.5l2 1.1-2.8 1c-.6.2-.9.9-.7 1.4.2.6.9.9 1.4.7l2.6-1-.9 1.9c-.3.6 0 1.2.5 1.5.6.3 1.2 0 1.5-.5l1.8-3.9 2-.7-.8 3c-.1.4 0 .8.3 1.1.3.5 1 .6 1.6.3l2.6-1.7v2.1z"/><path d="m132.3 169-2.3 1.6c-.4.3-.9.3-1.3.1l.1-.2-.1.2-2.1-1.5.6 2.4c.2.5 0 1-.4 1.3l-.1-.2.1.2-2.4 1.7 2.8.1c.5 0 .9.3 1.1.8l-.2.1.2-.1.9 2.8 1-2.6c.1-.5.6-.8 1.1-.8v.2-.2h2.9l-2.2-1.7c-.4-.3-.6-.8-.5-1.3l.2.1-.2-.1zm-7.4-6.4c-.5-.4-.5-1.1-.1-1.6s1.1-.5 1.6-.1l1.7 1.5v-2.9c0-.6.5-1.1 1.1-1.1s1.1.5 1.1 1.1v2.8l1.4-1.4c.4-.4 1.1-.4 1.6 0 .4.4.4 1.1 0 1.6l-3 3v2.2l2.6-1.8c.4-.3 1-.2 1.4.1.6.2.9.8.7 1.4l-.9 3 2-.6 1.8-3.9c.3-.6.9-.8 1.5-.5s.8.9.5 1.5l-1 2.1 2.8-.9c.6-.2 1.2.1 1.4.7s-.1 1.2-.7 1.4l-2.6.8 1.8.9c.5.3.8 1 .5 1.5s-1 .8-1.5.5l-3.8-2-2.1.6 2.5 1.9c.4.3.5.9.3 1.4 0 .6-.5 1.1-1.1 1.1h-3.1l1.2 1.7 4.3.6c.6.1 1 .6 1 1.2-.1.6-.6 1-1.2 1l-2.3-.3 1.7 2.4c.4.5.2 1.2-.3 1.6s-1.2.2-1.6-.3l-1.6-2.3-.4 2c-.1.6-.7 1-1.3.9s-1-.7-.9-1.3l.7-4.2-1.2-1.8-1.1 2.9c-.2.5-.7.8-1.2.7-.6.2-1.2-.1-1.4-.7l-1-2.9-1.3 1.6.8 4.3c.1.6-.3 1.2-.9 1.3s-1.2-.3-1.3-.9l-.4-2.3-1.8 2.3c-.4.5-1.1.6-1.6.2s-.6-1.1-.2-1.6l1.7-2.2-2 .3c-.6.1-1.2-.3-1.3-1-.1-.6.4-1.2 1-1.3l4.2-.6 1.3-1.7-3.1-.2c-.5 0-1-.4-1-.9-.4-.5-.2-1.2.3-1.6l2.5-1.8-1.9-.7-3.8 2c-.5.3-1.2.1-1.5-.5-.3-.5-.1-1.2.5-1.5l2-1.1-2.8-1c-.6-.2-.9-.9-.7-1.4.2-.6.9-.9 1.4-.7l2.6.9-.9-1.9c-.3-.6 0-1.2.5-1.5.6-.3 1.2 0 1.5.5l1.8 3.9 2 .7-.8-3c-.1-.4 0-.8.3-1.1.3-.5 1-.6 1.5-.3l2.6 1.7v-2.1z"/><path d="m42.9 44-2.3-1.6c-.4-.3-.9-.3-1.3-.1l.1.2-.1-.2-2.1 1.5.6-2.4c.2-.5 0-1-.4-1.3l-.1.2.1-.2-2.4-1.7 2.8-.1c.5 0 .9-.3 1.1-.8l-.2-.1.2.1.9-2.8 1 2.6c.1.5.6.8 1.1.8v-.2.2h2.9l-2.2 1.7c-.4.3-.6.8-.5 1.3l.2-.1-.3.2zm-7.4 6.4c-.5.4-.5 1.1-.1 1.6s1.1.5 1.6.1l1.7-1.5v2.9c0 .6.5 1.1 1.1 1.1s1.1-.5 1.1-1.1v-2.8l1.4 1.4c.4.4 1.1.4 1.6 0 .4-.4.4-1.1 0-1.6l-3-3v-2.2l2.6 1.8c.4.3 1 .2 1.4-.1.6-.2.9-.8.7-1.4l-.9-3 2 .6 1.8 3.9c.3.6.9.8 1.5.5s.8-.9.5-1.5l-1-2.1 2.8.9c.6.2 1.2-.1 1.4-.7s-.1-1.2-.7-1.4l-2.6-.8 1.8-.9c.5-.3.8-1 .5-1.5s-1-.8-1.5-.5l-3.8 2-2.1-.7 2.5-1.9c.4-.3.5-.9.3-1.4 0-.6-.5-1.1-1.1-1.1h-3l1.2-1.7 4.3-.6c.6-.1 1-.6 1-1.2-.1-.6-.6-1-1.2-1l-2.3.3 1.7-2.4c.4-.5.2-1.2-.3-1.6s-1.2-.2-1.6.3l-1.6 2.3-.4-2c-.1-.6-.7-1-1.3-.9s-1 .7-.9 1.3l.7 4.2-1.2 1.8-1.1-3c-.2-.5-.7-.8-1.2-.7-.6-.2-1.2.1-1.4.7l-1 2.9-1.3-1.6.8-4.3c.1-.6-.3-1.2-.9-1.3s-1.2.3-1.3.9l-.4 2.3-1.8-2.3c-.4-.5-1.1-.6-1.6-.2s-.6 1.1-.2 1.6l1.7 2.2-2-.3c-.6-.1-1.2.4-1.3 1s.3 1.2 1 1.3l4.2.6 1.3 1.7-3.1.2c-.5 0-1 .4-1 .9-.4.5-.2 1.2.3 1.6l2.5 1.8-1.9.7-3.8-2c-.5-.3-1.2-.1-1.5.5-.3.5-.1 1.2.5 1.5l2 1.1-2.8 1c-.6.2-.9.9-.7 1.4.2.6.9.9 1.4.7l2.6-.9-.9 1.9c-.3.6 0 1.2.5 1.5.6.3 1.2 0 1.5-.5l1.8-3.9 2-.7-.8 3c-.1.4 0 .8.3 1.1.3.5 1 .6 1.6.3l2.6-1.7v2.1z"/><path d="m241.5 0h5.8c.4.5 1.2.7 1.9.4.3-.1.5-.2.7-.4h14.6c-.1 1.7-.7 3.3-1.7 4.7-2.6 3.3.5 5.1 2.1 2.8l2.1-2.7v28.2c-.4-.3-.8-.6-1.2-.9-.8-.6-1.3-.4-1.5.6-.6 2.7-1.5 5.7-1.7 10.3-.4-.1-.9-.2-1.4-.2-1.7 0-2.2.7-2.9 1.4-.2.2-.4.4-.8.5-.6.1-.9-.3-1.2-.6-.5-.6-1-1.2-2.3-1.4-.8-.1-1.5 0-2.1.3l.1-12.3c0-1.7-1.3-6.9-3.8-7.5l-10-2.5c-.5-.3-1-.7-.8-1.5 0-.1.2-.2.4-.2.9-.3 1.8-.6 2.5-2.1.9-1.8.2-2.7-.5-3.6-.2-.2-.4-.5-.3-.6.1-.5.5-.8 1-1.1l8.2 1.9c2.8.7 3.9-2.4-.1-3.5-3-.8-5.4-2.6-6.7-6.2-.4-1.2-.6-2.5-.4-3.8zm-4.2 11.1c-7.8-1.5-10.5 8.1-2.7 9 0-.4 0-.8.2-1.4.4-1.5 1.3-1.8 2.3-2.1.3-.1.6-.2.7-.5.2-.5 0-.9-.3-1.2-.5-.6-1-1.3-.8-2.4.1-.6.3-1.1.6-1.4zm14.6 35v.1c-.2 8.8 9.3 8.4 10.3 3 .1-.3.1-1.1.2-2.1 0-.1-.1-.2-.1-.4-.1-.5-.4-1.4-1.4-1.4-.1 0-.2.1-.3.3-.6.7-1.2 1.4-2.9 1.6-2.1.2-2.9-.6-3.6-1.5-.2-.2-.4-.4-.5-.5-.8 0-1.3.4-1.7.9zm9.8-21.9c-1 .4-1.5 1.3-1.2 2.2.3.8 1.3 1.2 2.3.9 1-.4 1.5-1.3 1.2-2.2-.3-.8-1.3-1.2-2.3-.9zm-2-5.6c-1 .4-1.5 1.3-1.2 2.2.3.8 1.3 1.2 2.3.9 1-.4 1.5-1.3 1.2-2.2s-1.3-1.3-2.3-.9zm-2.1-5.7c-1 .4-1.5 1.3-1.2 2.2.3.8 1.3 1.2 2.3.9 1-.4 1.5-1.3 1.2-2.2s-1.3-1.3-2.3-.9zm-1.6-11.8c.3-.7 1.1-1.1 1.8-.9s1.1.9.9 1.5c-.3.7-.6 1.3-1.1 1.9-.8.9-1.8 1.6-2.9 2s-2.3.5-3.5.3c-.6-.1-1.2-.4-1.7-.7-.6-.4-.7-1.2-.2-1.8s1.4-.7 2-.3c.3.2.6.3.8.4.6.1 1.1.1 1.7-.1s1.1-.6 1.5-1.1c.3-.5.5-.9.7-1.2z"/><path d="m254.9 262c-.9.3-1.4 1.2-1.1 2s1.2 1.1 2.1.8 1.4-1.2 1.1-2c-.2-.8-1.2-1.2-2.1-.8zm9.5 4.9h-14.6c.4-.4.6-1 .4-1.6-.3-.8-1.2-1.1-2.1-.8s-1.4 1.2-1.1 2c.1.1.1.3.2.4h-5.8c.4-4 3.1-8.4 7.5-10.1 6-2.1 12.8 1.4 14.5 5.9.8 1.4 1.1 2.8 1 4.2z"/><path d="m7.7 0h7.2c-.1 1-.5 2-1.4 3.1-.2-.3-.6-.6-1-.9-1.3-.9-2.2-.5-3.1-.1-.4.1-.7.2-1 0-.6-.2-.6-.7-.6-1.1 0-.3-.1-.7-.1-1zm-7.7 33v-28.2l3.3-4.3c.5-.1 1.1-.2 1.5.1.1.2.1.5.2.8.1 1.1.1 2.2 2 3.1 1.5.7 2.4.3 3.3 0 .2-.1.3-.1.4-.1.6.4.5 1.1.4 1.6l-6.4 8.6c-1.4 1.9.9 6.9 2 8.2l8.1 9.2c-.7.2-1.4.6-2 1.3-.9.9-.9 1.7-.9 2.5 0 .4 0 .8-.5 1.2-.3.2-.6.2-.9.1-1-.2-1.8-.3-3.1.8-.3.3-.6.6-.8.9-2.5-2.9-4.7-4.5-6.6-5.8zm9 8.3c1 1 1.7 1.8 2 2.1 4.2 3.5 11.7-2.4 5.9-8.9-.7-.1-1.6-.2-2.1.4-.1.1-.1.4-.1.7 0 1.1 0 2.2-1.8 3.4-1.4 1-2.4.8-3.2.6-.2 0-.3-.1-.4 0-.6.5-.5 1.2-.3 1.7z"/><path d="m14.8 266.9h-7.1c-.1-.4-.4-.9-.9-1.3-.4-.3-.9-.6-1.3-.7 3.6-4.1 9.6-1.9 9.3 2z"/><path d="m79.9 125.2-2.3 1.6c-.4.3-.9.3-1.3.1l.1-.2-.1.2-2.1-1.5.6 2.4c.2.5 0 1-.4 1.3l-.1-.2.1.2-2.4 1.7 2.8.1c.5 0 .9.3 1.1.8l-.2.1.2-.1.9 2.8 1-2.6c.1-.5.6-.8 1.1-.8v.2-.2h2.9l-2.2-1.7c-.4-.3-.6-.8-.5-1.3l.2.1-.3-.2zm-7.4-6.4c-.5-.4-.5-1.1-.1-1.6s1.1-.5 1.6-.1l1.7 1.5v-2.9c0-.6.5-1.1 1.1-1.1s1.1.5 1.1 1.1v2.8l1.4-1.4c.4-.4 1.1-.4 1.6 0 .4.4.4 1.1 0 1.6l-3 3v2.2l2.6-1.8c.4-.3 1-.2 1.4.1.6.2.9.8.7 1.4l-.9 3 2-.6 1.8-3.9c.3-.6.9-.8 1.5-.5s.8.9.5 1.5l-1 2.1 2.8-.9c.6-.2 1.2.1 1.4.7s-.1 1.2-.7 1.4l-2.6.8 1.8.9c.5.3.8 1 .5 1.5s-1 .8-1.5.5l-3.8-2-2.1.6 2.5 1.9c.4.3.5.9.3 1.4 0 .6-.5 1.1-1.1 1.1h-3.1l1.2 1.7 4.3.6c.6.1 1 .6 1 1.2-.1.6-.6 1-1.2 1l-2.3-.3 1.7 2.4c.4.5.2 1.2-.3 1.6s-1.2.2-1.6-.3l-1.6-2.3-.4 2c-.1.6-.7 1-1.3.9s-1-.7-.9-1.3l.7-4.2-1.2-1.8-1.1 2.9c-.2.5-.7.8-1.2.7-.6.2-1.2-.1-1.4-.7l-1-2.9-1.3 1.6.8 4.3c.1.6-.3 1.2-.9 1.3s-1.2-.3-1.3-.9l-.4-2.3-1.8 2.3c-.4.5-1.1.6-1.6.2s-.6-1.1-.2-1.6l1.7-2.2-2 .3c-.6.1-1.2-.4-1.3-1s.4-1.2 1-1.3l4.2-.6 1.3-1.7-3.1-.2c-.5 0-1-.4-1-.9-.4-.5-.2-1.2.3-1.6l2.5-1.8-1.9-.7-3.8 2c-.5.3-1.2.1-1.5-.5-.3-.5-.1-1.2.5-1.5l2-1.1-2.8-1c-.6-.2-.9-.9-.7-1.4.2-.6.9-.9 1.4-.7l2.6 1-.9-1.9c-.3-.6 0-1.2.5-1.5.6-.3 1.2 0 1.5.5l1.8 3.9 2 .7-.8-3c-.1-.4 0-.8.3-1.1.3-.5 1-.6 1.5-.3l2.6 1.7v-2.1z"/><path d="m232.4 28.9-21.5.7c2.1-.5 4.1-1.1 4.9-1.5 1.8-.7 4.1-1.5 6.3-3 9.3-6.4-3.4-22.8-15.8.6-13.9-22.8-25.2-5.5-15.7.2 2.3 1.4 4.5 2.2 6.4 2.8.9.3 2.9.8 5 1.2l-21.5.7.3 10.9 24-.7-.3-10.5c1.3.1 2.3.1 3.6-.1l.3 10.5 24-.7zm-23.7-1.9c5.1-1.5 6.1-1.5 10.5-4.6 2.9-2 2.1-4.8-.4-4.9s-6.3 2.1-10.1 9.5zm-4.6.1c-3.8-.9-6.9-1.2-10.3-3.3-3.2-1.9-2.8-5.2-.5-5.7s6.2 1.4 10.8 9zm24.1 16.1-12.8.4 4.8 7.3-4.2-.2-1.7 3.9-5.6-10.9.7 22.5 19.4-.6zm-29.6.9-12.3.4.7 22.5 18.8-.6-.7-22.5-6.5 14-1.8-3.9-4.2.4z"/><path d="m132.1 0h-.1.1l1 2.7 1-2.6v-.1h7.5c0 .1-.1.2-.1.3 0 .6-.5 1.1-1.1 1.1h-3.1l1.2 1.7 4.3.6c.6.1 1 .6 1 1.2-.1.6-.6 1-1.2 1l-2.3-.3 1.7 2.4c.4.5.2 1.2-.3 1.6s-1.2.2-1.6-.3l-1.6-2.3-.4 2c-.1.6-.7 1-1.3.9s-1-.7-.9-1.3l.7-4.2-1.2-1.8-1.1 2.9c-.2.5-.7.8-1.2.7-.6.2-1.2-.1-1.4-.7l-1-2.9-1.3 1.6.8 4.3c.1.6-.3 1.2-.9 1.3s-1.2-.3-1.3-.9l-.4-2.3-1.8 2.3c-.4.5-1.1.6-1.6.2s-.6-1.1-.2-1.6l1.7-2.2-2 .3c-.6.1-1.2-.4-1.3-1s.3-1.2 1-1.3l4.2-.6 1.3-1.7-3.1-.2c-.5 0-1-.4-1-.9 0-.1-.1-.1-.1-.2h7.4z"/><path d="m136.2 260.4-2.3 1.6c-.4.3-.9.3-1.3.1l.1-.2-.1.2-2.1-1.5.6 2.4c.2.5 0 1-.4 1.3l-.1-.2.1.2-2.4 1.7 2.8.1c.5 0 .9.3 1.1.8h-.1-7.4c-.2-.5-.1-1 .4-1.4l2.5-1.8-1.9-.7-3.8 2c-.5.3-1.2.1-1.5-.5-.3-.5-.1-1.2.5-1.5l2-1.1-2.8-1c-.6-.2-.9-.9-.7-1.4.2-.6.9-.9 1.4-.7l2.6.9-.9-1.8c-.3-.6 0-1.2.5-1.5.6-.3 1.2 0 1.5.5l1.8 3.9 2 .7-.8-3c-.1-.4 0-.8.3-1.1.3-.5 1-.6 1.6-.3l2.6 1.7v-2.1l-3.2-2.9c-.5-.4-.5-1.1-.1-1.6s1.1-.5 1.6-.1l1.7 1.5v-2.9c0-.6.5-1.1 1.1-1.1s1.1.5 1.1 1.1v2.8l1.4-1.4c.4-.4 1.1-.4 1.6 0 .4.4.4 1.1 0 1.6l-3 3v2.2l2.6-1.8c.4-.3 1-.2 1.4.1.6.2.9.8.7 1.4l-.9 3 2-.6 1.8-3.9c.3-.6.9-.8 1.5-.5s.8.9.5 1.5l-1 2.1 2.8-.9c.6-.2 1.2.1 1.4.7s-.1 1.2-.7 1.4l-2.6.8 1.8.9c.5.3.8 1 .5 1.5s-1 .8-1.5.5l-3.8-2-2.1.7 2.5 1.9c.3.3.5.7.4 1.1h-7.5c.2-.4.6-.7 1-.7v.2-.2h2.9l-2.2-1.7c-.4-.3-.6-.8-.5-1.3l.2.1-.2-.1z"/><path d="m146.3 32.9-2.3-1.6c-.4-.3-.9-.3-1.3-.1l.1.2-.1-.2-2.1 1.5.6-2.4c.2-.5 0-1-.4-1.3l-.1.2.1-.2-2.4-1.7 2.8-.1c.5 0 .9-.3 1.1-.8l-.2-.1.2.1.9-2.8 1 2.6c.1.5.6.8 1.1.8v-.2.2h2.9l-2.2 1.7c-.4.3-.6.8-.5 1.3l.2-.1-.2.1zm-7.4 6.4c-.5.4-.5 1.1-.1 1.6s1.1.5 1.6.1l1.7-1.5v2.9c0 .6.5 1.1 1.1 1.1s1.1-.5 1.1-1.1v-2.8l1.4 1.4c.4.4 1.1.4 1.6 0 .4-.4.4-1.1 0-1.6l-3-3v-2.2l2.6 1.8c.4.3 1 .2 1.4-.1.6-.2.9-.8.7-1.4l-.9-3 2 .6 1.8 3.9c.3.6.9.8 1.5.5s.8-.9.5-1.5l-1-2.1 2.8.9c.6.2 1.2-.1 1.4-.7s-.1-1.2-.7-1.4l-2.6-.8 1.8-.9c.5-.3.8-1 .5-1.5s-1-.8-1.5-.5l-3.8 2-2.1-.6 2.5-1.9c.4-.3.5-.9.3-1.4 0-.6-.5-1.1-1.1-1.1h-3.1l1.2-1.7 4.3-.6c.6-.1 1-.6 1-1.2-.1-.6-.6-1-1.2-1l-2.3.3 1.7-2.4c.4-.5.2-1.2-.3-1.6s-1.2-.2-1.6.3l-1.6 2.3-.4-2c-.1-.6-.7-1-1.3-.9s-1 .7-.9 1.3l.7 4.2-1.2 1.8-1.1-2.9c-.2-.5-.7-.8-1.2-.7-.6-.2-1.2.1-1.4.7l-1 2.9-1.3-1.6.8-4.3c.1-.6-.3-1.2-.9-1.3s-1.2.3-1.3.9l-.4 2.3-1.8-2.3c-.4-.5-1.1-.6-1.6-.2s-.6 1.1-.2 1.6l1.7 2.2-2-.3c-.6-.1-1.2.3-1.3 1-.1.6.4 1.2 1 1.3l4.2.6 1.3 1.7-3.1.2c-.5 0-1 .4-1 .9-.4.5-.2 1.2.3 1.6l2.5 1.8-1.9.7-3.8-2c-.5-.3-1.2-.1-1.5.5-.3.5-.1 1.2.5 1.5l2 1.1-2.8 1c-.6.2-.9.9-.7 1.4.2.6.9.9 1.4.7l2.6-.9-.9 1.9c-.3.6 0 1.2.5 1.5.6.3 1.2 0 1.5-.5l1.8-3.9 2-.7-.8 3c-.1.4 0 .8.3 1.1.3.5 1 .6 1.5.3l2.6-1.7v2.1z"/><path d="m211.9 164.6-2.3-1.6c-.4-.3-.9-.3-1.3-.1l.1.2-.1-.2-2.1 1.5.6-2.4c.2-.5 0-1-.4-1.3l-.1.2.1-.2-2.4-1.7 2.8-.1c.5 0 .9-.3 1.1-.8l-.2-.1.2.1.9-2.8 1 2.6c.1.5.6.8 1.1.8v-.2.2h2.9l-2.2 1.7c-.4.3-.6.8-.5 1.3l.2-.1-.2.1zm-7.4 6.5c-.5.4-.5 1.1-.1 1.6s1.1.5 1.6.1l1.7-1.5v2.9c0 .6.5 1.1 1.1 1.1s1.1-.5 1.1-1.1v-2.8l1.4 1.4c.4.4 1.1.4 1.6 0 .4-.4.4-1.1 0-1.6l-3-3v-2.2l2.6 1.8c.4.3 1 .2 1.4-.1.6-.2.9-.8.7-1.4l-.9-3 2 .6 1.8 3.9c.3.6.9.8 1.5.5s.8-.9.5-1.5l-1-2.1 2.8.9c.6.2 1.2-.1 1.4-.7s-.1-1.2-.7-1.4l-2.6-.8 1.8-.9c.5-.3.8-1 .5-1.5s-1-.8-1.5-.5l-3.8 2-2.1-.6 2.5-1.9c.4-.3.5-.9.3-1.4 0-.6-.5-1.1-1.1-1.1h-3.1l1.2-1.7 4.3-.6c.6-.1 1-.6 1-1.2-.1-.6-.6-1-1.2-1l-2.3.3 1.7-2.4c.4-.5.2-1.2-.3-1.6s-1.2-.2-1.6.3l-1.6 2.3-.4-2c-.1-.6-.7-1-1.3-.9s-1 .7-.9 1.3l.7 4.2-1.2 1.8-1.1-2.9c-.2-.5-.7-.8-1.2-.7-.6-.2-1.2.1-1.4.7l-1 2.9-1.3-1.6.8-4.3c.1-.6-.3-1.2-.9-1.3s-1.2.3-1.3.9l-.4 2.3-1.8-2.3c-.4-.5-1.1-.6-1.6-.2s-.6 1.1-.2 1.6l1.7 2.2-2-.3c-.6-.1-1.2.4-1.3 1s.4 1.2 1 1.3l4.2.6 1.3 1.7-3.1.2c-.5 0-1 .4-1 .9-.4.5-.2 1.2.3 1.6l2.5 1.8-1.9.7-3.8-2c-.5-.3-1.2-.1-1.5.5-.3.5-.1 1.2.5 1.5l2 1.1-2.8 1c-.6.2-.9.9-.7 1.4.2.6.9.9 1.4.7l2.6-1-.9 1.9c-.3.6 0 1.2.5 1.5.6.3 1.2 0 1.5-.5l1.8-3.9 2-.7-.8 3c-.1.4 0 .8.3 1.1.3.5 1 .6 1.5.3l2.6-1.7v2.1z"/><path d="m210.4 0-.4.5 2.4-.5h1.2c.2.1.3.2.4.4l-.2.1.2-.1 1.6 2.4.3-2.8h5.4l-1.9.5 1.6 1.3 4.3-.6c.6-.1 1.2.3 1.3 1 .1.6-.3 1.2-1 1.3l-2.3.3 2.3 1.9c.5.4.5 1.1.1 1.6s-1.1.5-1.6.1l-2.1-1.8.2 2c.1.6-.4 1.2-1 1.2-.6.1-1.2-.4-1.2-1l-.4-4.3-1.7-1.4-.3 3.1c-.1.5-.5 1-1 1-.6.5-1.3.3-1.6-.2l-1.7-2.6-.8 1.9 1.8 3.9c.3.6 0 1.2-.5 1.5-.6.3-1.2 0-1.5-.5l-1-2.1-1.1 2.7c-.2.6-.9.8-1.5.6s-.8-.9-.6-1.5l1.1-2.6-1.9.8c-.6.2-1.2 0-1.5-.6-.2-.6 0-1.2.6-1.5l3.9-1.6.8-2-3.1.7c-.5.1-1-.2-1.3-.6-.5-.4-.5-1.1-.2-1.6l.8-.9h3.1zm-8.7 0h3.2l-1.4 1.3c-.5.4-1.2.4-1.6-.1-.3-.3-.4-.8-.2-1.2z"/><path d="m216.2 260-1.8 2.1c-.3.4-.8.6-1.3.4l.1-.2-.1.2-2.5-.9 1.2 2.2c.3.4.3.9-.1 1.3l-.2-.1.2.1-1.4 1.7h-2.9l1.2-1.5-2.1-.2-1.8 1.6h-3.2c.1-.1.1-.2.3-.4l1.7-1.6-2.9-.3c-.6-.1-1.1-.6-1-1.2s.6-1.1 1.2-1l2.8.2-1.3-1.6c-.4-.5-.3-1.2.1-1.6.5-.4 1.2-.3 1.6.1l2.8 3.3 2.2.2-1.5-2.7c-.2-.4-.2-.8 0-1.1.2-.6.8-.9 1.4-.7l2.9 1-.5-2-3.8-2c-.5-.3-.8-1-.5-1.5s1-.8 1.5-.5l2 1.1-.8-2.8c-.2-.6.2-1.2.8-1.4s1.2.2 1.4.8l.7 2.7 1-1.8c.3-.5 1-.7 1.5-.4s.7 1 .4 1.5l-2.1 3.7.6 2.1 2-2.4c.4-.4.9-.5 1.4-.3.6 0 1.1.5 1.1 1.1l-.1 3.1 1.7-1.1.7-4.3c.1-.6.7-1 1.3-.9s1 .7.9 1.3l-.4 2.3 2.5-1.6c.5-.3 1.2-.2 1.5.3s.2 1.2-.3 1.5l-2.3 1.5 2 .4c.6.1 1 .7.8 1.3-.1.6-.7 1-1.3.8l-4.2-.9-1.8 1.2 2.9 1.2c.5.2.8.7.7 1.2.2.6-.2 1.2-.8 1.4l-1.1.3h-5.4c0-.5.3-.9.8-1l.1.2-.1-.2 2.8-.8-2.6-1.1c-.5-.2-.8-.6-.8-1.1h.2-.2zm-3.8 6.9.3-.1c.3-.1.6-.1.8.1z"/></g><path d="m5.4 144.8c-.5.8-1.2 1.3-2 1.5s-1.7.1-2.5-.3c-.4-.2-.7-.5-.9-.8v2.3h.1c1.2.7 2.6.8 3.8.5s2.4-1.1 3.1-2.3l12.5-21.7c1-1.7 1.6-3.6 1.9-5.4.3-1.9.1-3.9-.4-5.7-.8-3-2.5-5.6-4.8-7.6-2.2-1.9-5.1-3-8.1-3.1-1.1 0-2.3.1-3.4.3s-2.2.6-3.2 1.2c-.5.3-1 .6-1.5.9v6l3 2.8c-.3.5-.5 1.2-.7 1.9 0 .1 0 .2-.1.3l-2.2-.9v3.7l1.8.6c-.2.4-.5.8-.8 1.1s-.6.5-1 .6v1.8c.8-.2 1.5-.6 2.1-1.2.9-.9 1.6-2.1 1.6-3.5 0-.9.1-1.6.3-2.3s.4-1.3.7-1.7c.2-.3.4-.6.6-.8.2-.2.5-.4.7-.5s.5-.2.8-.3c.3-.1.6-.1.9-.1.8 0 1.6.4 2.2.9.7.6 1.2 1.4 1.4 2.3.2.6.2 1.2.1 1.8s-.3 1.2-.6 1.7l-10.8 18.8v6.3l7-1.8zm-4.9-4.7 2.5-4.3 8.9-2.2-2.5 4.3zm5-8.5 2.5-4.3 8.9-2.2-2.5 4.3zm4.9-8.5 1.9-3.3c.2-.3.4-.7.5-1l6.9-1.7c0 .4 0 .9-.1 1.3-.1.9-.3 1.7-.6 2.6zm2.6-7.9c0-.1 0-.1 0-.2-.1-.2-.1-.5-.2-.7l4.7-5.1c.9 1.2 1.5 2.6 1.9 4.1 0 .1 0 .2.1.3zm-2.4-3.7c-.2-.1-.4-.3-.6-.4l-.3-7c2 .4 3.8 1.3 5.3 2.5zm-4.1-1c-.4.1-.7.2-1 .3l-5-4.6c.6-.4 1.2-.8 1.8-1.1.9-.5 1.8-.8 2.8-1 .4-.1.8-.2 1.2-.2z"/><path d="m266.9 145.2c-.3-.3-.5-.7-.6-1.2l.6-.1v-6.3l-1.8 3c-.7 1.2-.8 2.6-.5 3.8s1.1 2.3 2.3 3zm0-40.7v6l-1.9-1.7c-.2.3-.4.6-.6.9-.6 1-1.1 2.2-1.5 3.6l3.9 1.4v3.7l-4.5-1.6v.8c0 .9.3 1.7.9 2.4.6.6 1.4 1 2.3 1 .5 0 1-.1 1.4-.3v1.8c-.5.1-1 .2-1.5.2-1.4-.1-2.6-.7-3.5-1.6s-1.4-2.2-1.3-3.6c.1-1.7.3-3.3.7-4.7.4-1.5 1-2.8 1.6-4 .7-1.2 1.5-2.2 2.4-3 .5-.4 1-.9 1.6-1.3z"/><path d="m24.9 205.4c-.1.9-.5 1.7-1.2 2.2-.6.5-1.5.8-2.4.8-.9-.1-1.7-.5-2.2-1.1l6-5zm-6.5-2.1.4-5 7.1-5.8-.4 5zm.9-9.8.4-5 7.1-5.8-.4 5zm.8-9.8.3-3.7c0-.4 0-.8 0-1.1l5.5-4.5c.2.4.3.8.5 1.2.3.8.4 1.7.5 2.6zm-1.1-8.3c0-.1-.1-.1-.1-.2-.2-.2-.3-.4-.5-.5l2-6.6c1.3.8 2.5 1.7 3.5 2.9l.2.2zm-3.7-2.3c-.2 0-.5-.1-.7-.1l-3.3-6.2c2-.5 4-.5 5.9 0zm-4.1.9c-.3.2-.6.5-.8.8l-6.5-2c.3-.6.7-1.2 1.1-1.8.6-.8 1.3-1.5 2.1-2.1.3-.2.6-.5 1-.7zm-2 4c0 .6 0 1.3.2 2 0 .1 0 .2.1.3l-6.6.7c-.3-1.4-.3-2.7-.2-3.9 0-.4.1-.7.1-1zm1.3 5.7c0 .5-.1.9-.2 1.4-.3.8-.9 1.4-1.8 1.8-.8.4-1.7.3-2.5 0s-1.4-.9-1.8-1.8c-.1-.2-.2-.5-.3-.7zm14.3 25.3c1-.8 1.6-2 1.8-3.4l2.1-24.9c.2-2-.1-3.9-.6-5.7-.6-1.9-1.5-3.6-2.8-5-2-2.4-4.7-4-7.6-4.8-2.8-.7-5.9-.6-8.7.6-1 .4-2 1-3 1.7-.9.7-1.7 1.5-2.4 2.4-.7 1-1.4 2.1-1.8 3.3s-.7 2.4-.8 3.7 0 2.8.2 4.3c.3 1.4.7 2.9 1.4 4.5.5 1.3 1.5 2.2 2.7 2.7s2.6.5 3.8 0c1.3-.5 2.2-1.5 2.7-2.7s.5-2.6 0-3.8c-.3-.8-.6-1.5-.7-2.2s-.2-1.3-.1-1.9c0-.4.1-.7.2-1 .1-.3.3-.6.4-.8.2-.2.4-.4.6-.6.2-.2.5-.3.7-.4.8-.3 1.6-.3 2.4-.1.9.3 1.7.8 2.3 1.5.4.5.7 1 .9 1.6s.3 1.2.2 1.8l-2.1 24.9c-.1 1.4.3 2.7 1.2 3.7.8 1 2 1.6 3.4 1.8 1.3.1 2.6-.4 3.6-1.2z"/><path d="m41.3 266.9h-2.7l-3.5-2.9-9.1 1 2.4 2h-2.7l-2.5-2c-1.5-1.3-2.7-2.8-3.6-4.5s-1.5-3.6-1.6-5.5c-.3-3.1.4-6.2 1.9-8.7s3.7-4.6 6.5-5.7c1.1-.4 2.2-.7 3.3-.9 1.1-.1 2.3-.2 3.4 0 1.2.2 2.4.5 3.6 1 1.1.5 2.2 1.2 3.2 2 1 .9 2 1.9 2.9 3.2.8 1.2 1.6 2.6 2.2 4.1.5 1.3.5 2.7 0 3.8-.5 1.2-1.4 2.2-2.7 2.7s-2.7.5-3.8 0c-1.2-.5-2.2-1.4-2.7-2.7-.3-.8-.7-1.5-1.1-2-.4-.6-.8-1-1.2-1.4-.3-.3-.6-.4-.9-.6-.3-.1-.6-.2-.9-.3-.3 0-.6 0-.8 0-.3 0-.6.1-.8.2-.8.3-1.3.9-1.7 1.6-.4.8-.6 1.8-.5 2.7.1.6.2 1.2.5 1.8.3.5.7 1 1.1 1.4zm-9.9-6.1-2.9-2.4c-.3-.2-.6-.5-.8-.8l-7.1.8c.2.4.3.8.5 1.2.4.8.9 1.5 1.5 2.2zm-5.2-6.5c0-.1 0-.1 0-.2 0-.2 0-.5 0-.8l-6.1-3.2c-.4 1.5-.5 3-.4 4.6v.3zm1-4.3c.1-.2.3-.4.4-.5l-2.1-6.7c-1.7 1-3.1 2.5-4.1 4.2zm3.5-2.3c.4-.1.7-.1 1.1 0l3.1-6c-.7-.2-1.4-.4-2.1-.5-1-.1-2-.1-3 0-.4.1-.8.1-1.2.2zm4.3 1.5c.4.4.9.9 1.3 1.5.1.1.1.2.2.2l5.1-4.2c-.8-1.1-1.7-2.1-2.6-2.9-.3-.2-.6-.4-.8-.6zm3.1 4.8c.3.3.7.6 1.1.8.8.3 1.7.4 2.5 0 .8-.3 1.5-1 1.8-1.8s.4-1.7 0-2.5c-.1-.2-.2-.5-.3-.7z"/><path d="m43.5 12.6c.7.6 1.6.8 2.4.7s1.6-.5 2.2-1.2c.6-.7.8-1.5.7-2.4l-7.8.8zm-17.9-12.6h2.7l1.5 1.2 9.1-1-.3-.2h2.7l7.5 6.2c1.1.9 1.7 2.1 1.8 3.4s-.3 2.6-1.1 3.7c-.9 1.1-2.1 1.7-3.4 1.8s-2.6-.3-3.7-1.1zm20.9 6.6-3.8-3.2-9.1 1 3.8 3.2z"/><path clip-rule="evenodd" d="m178.5 223.4c2.6-13.1-6-12.5-.3.1.1 0 .2 0 .3-.1zm13.5 43.5h-3.7c1.9-3.8 1-8.6-.5-13-1.9-5.4-3.6-7.9-5.6-13-1.6 1-11.3 6.1-15.5 7.7 1.1 3.6 6.6 11.8-1.1 15.6-1.4.7-3.4 1.6-5.2 2.6h-4.7c.8-.9 1.8-1.7 3-2.2l3-1.4c2.7-1.3 5.5-4.5 4.6-7.3l-2.1-6.2-.2.1c-1.9.9-3.9.9-5.7.3-1.8-.7-3.4-2-4.5-3.8l-1.2-2.2c-.1-.2-.2-.3-.2-.4-.8-1.8-.8-3.7-.2-5.5.6-1.7 1.9-3.2 3.6-4.2.1-.1.3-.2.5-.3l18.9-8.9-.3-.5c-7.8-16.8 10.8-18.5 6.9-.8.3.1.5.1.8.2 1.8.7 3.4 2 4.5 3.8l1.2 2.2c.1.2.2.3.2.4.8 1.8.8 3.7.2 5.5-.6 1.7-1.9 3.2-3.5 4.2l6.6 16c1.5 3.7 1.5 7.6.2 11.1z" fill-rule="evenodd"/><path clip-rule="evenodd" d="m155.8 0h4.7c-.6.4-1.2.8-1.8 1.2-6.3 4.7.3 12.2 4.1 11.4 7.1-1.5 12.6-4.2 19.6-7.3 3.1-1.3 4.9-3.2 6-5.3h3.7c-1.2 3.2-3.6 5.9-6.9 7.5-5.8 2.7-12.6 4.5-18.3 7.2-4.7 2.2-10.3.2-12.5-4.5-1.8-3.4-1.1-7.5 1.4-10.2z" fill-rule="evenodd"/></g></svg>